<?xml version="1.0" encoding="UTF-8" standalone="no"?>
<!-- Created with Inkscape (http://www.inkscape.org/) -->

<svg
   width="50.606266mm"
   height="15.053773mm"
   viewBox="0 0 50.606266 15.053773"
   version="1.1"
   id="svg1"
   xml:space="preserve"
   xmlns="http://www.w3.org/2000/svg"
   xmlns:svg="http://www.w3.org/2000/svg"><defs
     id="defs1" /><g
     id="layer1"
     transform="translate(-13.969326,-126.46769)"><rect
       style="display:none;fill:#000000;fill-opacity:1;stroke-width:0.264583"
       id="rect77"
       width="181.04288"
       height="101.78644"
       x="-27.475826"
       y="106.07747" /><path
       id="path75"
       style="fill:#67b044;fill-opacity:1;stroke-width:0.063597"
       d="m 21.496209,126.46769 a 7.5269114,7.5269114 0 0 0 -7.526882,7.52689 7.5269114,7.5269114 0 0 0 7.526882,7.52689 7.5269114,7.5269114 0 0 0 7.526976,-7.52689 7.5269114,7.5269114 0 0 0 -7.526976,-7.52689 z m 3.928726,2.71092 c 0.153127,-0.006 0.169431,0.20374 0.17054,0.72837 0.0066,2.93875 -2.031848,4.95371 -5.011671,4.95371 -2.020158,0 -2.291436,3.00763 -0.455484,5.04965 0.498123,0.55403 0.473593,0.5793 -0.112867,0.11573 -2.911399,-2.30132 -1.514916,-7.30202 2.247677,-8.04874 0.621653,-0.12338 0.621695,-0.12326 0.11478,-0.13162 -1.933535,-0.0319 -4.174379,1.66432 -4.260916,3.22532 -0.02176,0.39257 -0.146351,-0.34408 -0.156866,-0.92762 -0.04179,-2.31901 0.850746,-3.34293 3.101639,-3.55789 1.576831,-0.15058 2.913809,-0.55571 3.913228,-1.18586 0.216938,-0.13679 0.358056,-0.21764 0.44994,-0.22105 z" /><text
       xml:space="preserve"
       style="font-weight:bold;font-size:11.3756px;font-family:Tangerine;-inkscape-font-specification:'Tangerine Bold';fill:var(--dynamic-fill-color);fill-opacity:1;stroke-width:0.133307"
       x="32.155163"
       y="136.96346"
       id="text76"><tspan
         id="tspan76"
         style="font-style:normal;font-variant:normal;font-weight:300;font-stretch:normal;font-family:Cantarell;-inkscape-font-specification:'Cantarell Light';fill:#1874d4;fill-opacity:1;stroke-width:0.133307"
         x="32.155163"
         y="136.96346">sanare</tspan></text></g></svg>
