<svg width="50.606mm" height="15.054mm" version="1.1" viewBox="0 0 50.606 15.054" xmlns="http://www.w3.org/2000/svg">
 <g transform="translate(-132.29 -115.89)">
  <path d="m139.82 115.89a7.5269 7.5269 0 0 0-7.5269 7.5269 7.5269 7.5269 0 0 0 7.5269 7.5269 7.5269 7.5269 0 0 0 7.527-7.5269 7.5269 7.5269 0 0 0-7.527-7.5269zm3.9287 2.7109c0.15313-6e-3 0.16944 0.20374 0.17054 0.72837 7e-3 2.9388-2.0318 4.9537-5.0117 4.9537-2.0202 0-2.2914 3.0076-0.45548 5.0496 0.49812 0.55403 0.47359 0.5793-0.11287 0.11573-2.9114-2.3013-1.5149-7.302 2.2477-8.0487 0.62165-0.12338 0.62169-0.12326 0.11478-0.13162-1.9335-0.0319-4.1744 1.6643-4.2609 3.2253-0.0218 0.39257-0.14635-0.34408-0.15686-0.92762-0.0418-2.319 0.85074-3.3429 3.1016-3.5579 1.5768-0.15058 2.9138-0.55571 3.9132-1.1859 0.21694-0.13679 0.35806-0.21764 0.44994-0.22105z" fill="#67b044" stroke-width=".063597"/>
  <text x="150.47751" y="126.38326" fill="#1874d4" font-family="Tangerine" font-size="11.376px" font-weight="bold" stroke-width=".13331" xml:space="preserve"><tspan x="150.47751" y="126.38326" fill="#aac7ff" font-family="Cantarell" font-weight="300" stroke-width=".13331">sanare</tspan></text>
 </g>
</svg>
