<?xml version="1.0" encoding="UTF-8"?>
<!-- Created with Inkscape (http://www.inkscape.org/) -->
<svg width="33.811mm" height="33.811mm" version="1.1" viewBox="0 0 33.811 33.811" xml:space="preserve" xmlns="http://www.w3.org/2000/svg"><g transform="translate(-16.306 -174.82)"><path d="m33.211 174.82a16.905 16.905 0 0 0-16.905 16.905 16.905 16.905 0 0 0 16.905 16.905 16.905 16.905 0 0 0 16.905-16.905 16.905 16.905 0 0 0-16.905-16.905zm8.8239 6.0887c0.34392-0.0128 0.38054 0.4576 0.38303 1.6359 0.0149 6.6004-4.5635 11.126-11.256 11.126-4.5372 0-5.1465 6.7551-1.023 11.341 1.1188 1.2444 1.0637 1.3011-0.2535 0.25994-6.539-5.1688-3.4025-16.4 5.0483-18.077 1.3962-0.27709 1.3963-0.27682 0.25779-0.29561-4.3427-0.0716-9.3756 3.738-9.57 7.244-0.04888 0.88172-0.3287-0.7728-0.35232-2.0834-0.09385-5.2085 1.9108-7.5082 6.9662-7.991 3.5415-0.33821 6.5444-1.2481 8.7891-2.6634 0.48724-0.30722 0.80419-0.48882 1.0106-0.49647z" fill="#67b044" stroke-width=".14284"/></g></svg>
