<?xml version="1.0" encoding="UTF-8" standalone="no"?>
<!-- Created with Inkscape (http://www.inkscape.org/) -->

<svg
   width="50.605976mm"
   height="15.053797mm"
   viewBox="0 0 50.605976 15.053797"
   version="1.1"
   id="svg1"
   xml:space="preserve"
   xmlns:inkscape="http://www.inkscape.org/namespaces/inkscape"
   xmlns:sodipodi="http://sodipodi.sourceforge.net/DTD/sodipodi-0.dtd"
   xmlns="http://www.w3.org/2000/svg"
   xmlns:svg="http://www.w3.org/2000/svg"><sodipodi:namedview
     id="namedview1"
     pagecolor="#ffffff"
     bordercolor="#000000"
     borderopacity="0.25"
     inkscape:showpageshadow="2"
     inkscape:pageopacity="0.0"
     inkscape:pagecheckerboard="0"
     inkscape:deskcolor="#d1d1d1"
     inkscape:document-units="mm"
     showgrid="false" /><defs
     id="defs1"><rect
       x="373.86243"
       y="427.02664"
       width="293.35556"
       height="61.952549"
       id="rect2" /></defs><g
     inkscape:label="Layer 1"
     inkscape:groupmode="layer"
     id="layer1"
     transform="translate(-79.711588,-140.97309)"><g
       inkscape:label="Layer 1"
       id="layer1-5"><g
         transform="translate(-52.581509,25.0831)"
         id="g1"><path
           d="m 139.82,115.89 a 7.5269,7.5269 0 0 0 -7.5269,7.5269 7.5269,7.5269 0 0 0 7.5269,7.5269 7.5269,7.5269 0 0 0 7.527,-7.5269 7.5269,7.5269 0 0 0 -7.527,-7.5269 z m 3.9287,2.7109 c 0.15313,-0.006 0.16944,0.20374 0.17054,0.72837 0.007,2.9388 -2.0318,4.9537 -5.0117,4.9537 -2.0202,0 -2.2914,3.0076 -0.45548,5.0496 0.49812,0.55403 0.47359,0.5793 -0.11287,0.11573 -2.9114,-2.3013 -1.5149,-7.302 2.2477,-8.0487 0.62165,-0.12338 0.62169,-0.12326 0.11478,-0.13162 -1.9335,-0.0319 -4.1744,1.6643 -4.2609,3.2253 -0.0218,0.39257 -0.14635,-0.34408 -0.15686,-0.92762 -0.0418,-2.319 0.85074,-3.3429 3.1016,-3.5579 1.5768,-0.15058 2.9138,-0.55571 3.9132,-1.1859 0.21694,-0.13679 0.35806,-0.21764 0.44994,-0.22105 z"
           fill="#67b044"
           stroke-width="0.063597"
           id="path1" /><text
           x="150.47751"
           y="126.38326"
           fill="#1874d4"
           font-family="Tangerine"
           font-size="11.376px"
           font-weight="bold"
           stroke-width="0.13331"
           xml:space="preserve"
           id="text1"><tspan
             x="150.47751"
             y="126.38326"
             fill="#aac7ff"
             font-family="Cantarell"
             font-weight="300"
             stroke-width="0.13331"
             id="tspan1"
             style="fill:#0a5ab6;fill-opacity:1">sanare</tspan></text></g><text
         xml:space="preserve"
         transform="matrix(0.21816356,0,0,0.21816356,38.296469,58.93762)"
         id="text2"
         style="font-size:14.6667px;font-family:Symbola;-inkscape-font-specification:Symbola;letter-spacing:1.83px;white-space:pre;shape-inside:url(#rect2);fill:#111318;fill-opacity:1;stroke:#000000"><tspan
           x="373.86328"
           y="439.57257"
           id="tspan4"><tspan
             style="font-family:'Nimbus Roman';-inkscape-font-specification:'Nimbus Roman, ';stroke:none"
             id="tspan3">DEMO</tspan></tspan></text></g></g></svg>
